Coordinates
version=1
nRows=19
nColumns=36
inDegrees=yes

Units are S.I. units (second, meters, Newtons, ...)
If the header above contains a line with 'inDegrees', this indicates whether rotational values are in degrees (yes) or radians (no).

endheader
time	pelvis_tilt	pelvis_list	pelvis_rotation	pelvis_tx	pelvis_ty	pelvis_tz	hip_flexion_r	hip_adduction_r	hip_rotation_r	knee_angle_r	knee_angle_r_beta	ankle_angle_r	subtalar_angle_r	mtp_angle_r	hip_flexion_l	hip_adduction_l	hip_rotation_l	knee_angle_l	knee_angle_l_beta	ankle_angle_l	subtalar_angle_l	mtp_angle_l	lumbar_extension	lumbar_bending	lumbar_rotation	arm_flex_r	arm_add_r	arm_rot_r	elbow_flex_r	pro_sup_r	arm_flex_l	arm_add_l	arm_rot_l	elbow_flex_l	pro_sup_l
     45.41666670	     -7.26607529	      1.00012694	     -9.47352655	      0.70390857	      0.89776162	      0.80372408	     32.62506420	      0.60398658	      1.07946577	      9.08000418	      0.15847597	      9.27650103	     -0.46118827	     -7.49999987	      0.62732201	     -0.10701522	     -5.53813196	     16.47622913	      0.28756445	     16.98502584	     -5.07135444	     -7.49999987	     -0.25089981	      0.09814156	      0.46514075	     -0.42408966	     -8.37424621	      5.90910921	     16.87446180	     76.84463112	      4.90556600	    -15.26010644	      3.38924167	     28.68193335	     81.24119939
     45.43333330	     -7.35091135	      0.50474262	     -9.64362054	      0.70696253	      0.89553124	      0.80461536	     32.58113710	      1.39561272	      0.99022843	      9.30491508	      0.16240140	      9.15938337	      0.38722033	     -7.49999987	      0.07316998	     -0.85421387	     -6.01977085	     17.35627656	      0.30292417	     18.00400697	     -4.62926156	     -7.49999987	     -0.03749934	      0.69414468	      0.74874556	     -0.35130548	     -8.64421983	      6.56193268	     16.49309153	     77.32303225	      4.79904960	    -14.96095222	      3.52436883	     27.81851130	     81.47913501
     45.45000000	     -7.42666394	      0.09076005	     -9.76493457	      0.71035921	      0.89148657	      0.80496508	     32.40044896	      2.07459536	      0.90517988	     10.39582626	      0.18144140	      8.24281791	      0.56960226	     -7.49999987	     -0.31546294	     -1.45856841	     -6.28521570	     18.47331100	      0.32242010	     18.62044546	     -4.83350018	     -7.49999987	      0.08198915	      1.27861173	      0.94194548	     -0.34383113	     -9.04146274	      6.63874917	     16.65753282	     77.38648723	      4.29718483	    -14.60407355	      3.59105784	     27.63485869	     81.49284709
     45.46666670	     -7.30303305	     -0.39507603	     -9.83066336	      0.71494110	      0.88809267	      0.80597904	     31.79465992	      2.75125493	      0.71318373	     11.77665650	      0.20554143	      6.76385348	      0.26487076	     -7.49999987	     -0.74535584	     -2.19862387	     -6.89058766	     20.05404394	      0.35000910	     19.48083106	     -4.05604202	     -7.49999987	      0.15468973	      2.01860393	      1.13873677	     -0.03209806	     -9.50499272	      7.18308970	     16.21551343	     77.86584875	      4.01012678	    -13.90569679	      3.36230836	     26.42851309	     81.68298016
     45.48333330	     -7.10588199	     -0.81812600	     -9.95693941	      0.72007966	      0.88551823	      0.80806849	     31.14122431	      3.35741804	      0.52398651	     13.31747024	      0.23243370	      5.40433361	     -0.17613013	     -7.49999987	     -1.04211944	     -2.82788889	     -7.17940599	     22.10143692	      0.38574284	     19.66715061	     -4.24642858	     -7.49999987	      0.14357048	      2.75639903	      1.43118615	      0.22578450	    -10.09654387	      7.49676425	     16.14236765	     78.16111435	      3.31357858	    -13.14754296	      3.05061004	     25.83957826	     81.77022800
     45.50000000	     -6.78086519	     -1.26015179	    -10.19762109	      0.72351455	      0.88574983	      0.81077117	     30.38252359	      4.01058132	      0.59728899	     14.80404180	      0.25837927	      4.52833277	     -0.83112495	     -7.49999987	     -1.28139946	     -3.50777301	     -7.52780213	     24.60946615	      0.42951621	     19.32590236	     -4.73425171	     -7.49999987	      0.01672791	      3.52644423	      1.52856916	      0.73700118	    -10.77844144	      8.54495883	     15.95530886	     78.90076986	      2.17090960	    -12.17900322	      1.18158006	     25.53631161	     81.85859641
     45.51666670	     -6.39533076	     -1.72758728	    -10.48637807	      0.72550012	      0.88572823	      0.81285941	     29.60581700	      4.66304475	      0.64655207	     16.25181002	      0.28364759	      4.42838306	     -1.28315431	     -7.49999987	     -1.41266410	     -4.27203076	     -8.02716305	     27.50043706	      0.47997317	     18.22522988	     -5.24909117	     -7.49999987	     -0.19672730	      4.34733138	      2.01161208	      1.01006354	    -11.44098411	      8.48196126	     15.96291897	     78.88300820	      1.25595325	    -11.41794865	      1.22310458	     25.22029550	     81.85632691
     45.53333330	     -5.99464477	     -2.34172546	    -10.67178643	      0.72742157	      0.88470905	      0.81441381	     28.71950268	      5.43556103	      0.90309012	     17.55902994	      0.30646289	      4.89717321	     -2.10181801	     -7.49999987	     -1.30751225	     -5.21626765	     -8.33080900	     30.96142405	      0.54037879	     16.52816919	     -5.87049814	     -7.49999987	     -0.41419559	      5.32944631	      2.42531545	      1.22708555	    -12.12287222	      8.43747844	     16.01288429	     78.86457246	      0.43236984	    -10.62522047	      1.18087195	     24.88738730	     81.81726818
     45.55000000	     -5.73496127	     -3.08002426	    -10.61812648	      0.72980129	      0.88584805	      0.81641402	     27.75645806	      6.29640613	      1.35404956	     18.52447583	      0.32331310	      5.36688555	     -3.75806993	     -7.49999987	     -0.58945553	     -6.25220266	     -7.98028397	     35.06584947	      0.61201453	     13.78183396	     -7.55927014	     -7.49999987	     -0.42672328	      6.46782686	      2.61992356	      1.37283410	    -12.86549307	      8.53104476	     16.33902734	     78.86049553	     -0.29831117	     -9.74377033	      0.67636487	     24.31594613	     81.62058919
     45.56666670	     -5.40788307	     -3.73421048	    -10.63222368	      0.73294408	      0.89046318	      0.81953827	     26.55102744	      7.11997399	      1.85632904	     19.26076384	      0.33616375	      6.50089027	     -4.82404795	     -7.49999987	      0.54159246	     -7.26977132	     -7.77480038	     39.67287102	      0.69242222	     10.20206585	     -9.06098134	     -7.49999987	     -0.55758569	      7.43351882	      2.97411056	      1.71043150	    -13.47017631	      8.74819523	     16.58473384	     78.86582304	     -0.91071664	     -9.06606202	      0.22011538	     23.83172057	     81.40312690
     45.58333330	     -5.04113993	     -4.35672732	    -10.61357465	      0.73570539	      0.89788065	      0.82275441	     24.97406819	      7.91712369	      2.34091631	     19.45681787	      0.33958553	      7.78593599	     -5.49516345	     -7.49999987	      2.01534376	     -8.22126248	     -7.35813143	     44.40579453	      0.77502732	      6.19256349	    -10.51045909	     -7.49999987	     -0.74783232	      8.26492611	      3.34277255	      2.31957574	    -14.01945730	     10.03186842	     16.58934903	     77.59268694	     -1.42237315	     -8.51579025	      0.15000436	     23.26133564	     79.72746335
     45.60000000	     -4.59545301	     -4.87417952	    -10.44411352	      0.73663454	      0.90579115	      0.82590711	     23.01527465	      8.53922569	      2.74855704	     19.04112407	      0.33233031	      8.72314507	     -6.01923860	     -7.49999987	      3.57467587	     -8.93376238	     -6.67377224	     48.58889177	      0.84803614	      2.54175348	    -11.77787636	     -7.49999987	     -1.02824325	      8.88984704	      3.76980372	      2.92363502	    -14.45559969	     10.79664921	     16.74783864	     77.32074488	     -1.74564789	     -8.13338409	      0.65233841	     22.55062200	     79.53847750
     45.61666670	     -4.19803930	     -5.19372152	    -10.10241636	      0.73681646	      0.91212381	      0.82919865	     20.94208508	      8.90138607	      3.05965753	     18.18226950	      0.31734047	      9.34065245	     -6.20882076	     -7.49999987	      5.30421044	     -9.36489042	     -5.89588659	     52.05719135	      0.90856939	     -0.14426347	    -12.58538541	     -7.49999987	     -1.29901962	      9.22715437	      4.15231488	      3.45053522	    -14.64862427	     10.87260688	     17.04712018	     77.35780751	     -2.09563521	     -7.82517901	      0.89728876	     22.15927674	     79.60972567
     45.63333330	     -3.73574257	     -5.21510238	     -9.60741015	      0.73731393	      0.91677503	      0.83159603	     18.75199364	      8.88601471	      3.26928532	     17.08719386	      0.29822779	      9.67281411	     -6.34932758	     -7.49999987	      7.08451729	     -9.35072157	     -5.06545107	     54.82287511	      0.95683968	     -2.28260449	    -13.64025603	     -7.49999987	     -1.60820729	      9.11762461	      4.31244809	      3.98509015	    -14.71783196	     10.98250073	     17.41893797	     77.41498772	     -2.38926310	     -7.62043350	      1.33069228	     21.42841537	     79.74242591
     45.65000000	     -3.28460731	     -5.03685725	     -9.12379818	      0.73609456	      0.91976829	      0.83246974	     16.64491173	      8.64924796	      3.40019206	     16.01907201	      0.27958555	      9.99222113	     -6.33933712	     -7.49999987	      9.02073194	     -9.03169277	     -4.32164437	     57.17444241	      0.99788227	     -3.22874575	    -14.36995291	     -7.49999987	     -1.94617307	      8.76402268	      4.59440732	      4.45588891	    -14.77602001	     11.04273660	     17.87228222	     77.40517591	     -2.62881389	     -7.46733302	      1.73126712	     20.99561511	     79.79842086
     45.66666670	     -2.74741402	     -4.64173327	     -8.65526678	      0.73157483	      0.92227445	      0.83325701	     14.55923338	      8.14051018	      3.35818210	     15.02120019	      0.26216940	     10.32091587	     -6.13873989	     -7.49999987	     10.95784015	     -8.35344107	     -3.70738385	     59.02494857	      1.03017969	     -3.19205276	    -15.28702619	     -7.49999987	     -2.51625527	      8.14971850	      5.18282741	      4.68165031	    -15.03298211	     11.15201622	     19.01728590	     77.18947707	     -2.31816297	     -7.60628527	      4.26105575	     20.20281222	     79.90736725
     45.68333330	     -2.45892882	     -4.06160953	     -8.29189198	      0.72559312	      0.92433717	      0.83595769	     12.99740177	      7.51725705	      3.32651956	     14.30464979	      0.24966324	     10.66037823	     -6.11792846	     -7.49999987	     13.16566409	     -7.51285483	     -3.36339221	     60.38337356	      1.05388868	     -2.00576435	    -15.90365064	     -7.49999987	     -2.93579045	      7.33398328	      5.53186236	      5.38736807	    -15.08990644	     11.10491956	     19.60183993	     77.10928379	     -2.35480716	     -7.65704672	      4.34970212	     20.37840537	     79.81263240
     45.70000000	     -1.85419742	     -3.52167732	     -7.67407969	      0.72105982	      0.92570911	      0.83922663	     11.25431483	      6.82012520	      2.70645402	     13.67570387	      0.23868606	     11.05092531	     -5.93762262	     -7.49999987	     14.91738436	     -6.63845422	     -3.07679002	     61.02192273	      1.06503347	     -0.12304748	    -16.02011873	     -7.49999987	     -4.03063013	      6.52051360	      5.45516404	      6.09391370	    -15.25606895	     10.97813097	     21.34163267	     75.41921804	     -2.36835108	     -7.90397413	      5.05485993	     21.06962171	     77.92580599
     45.71666670	     -1.73993512	     -2.84397589	     -7.20180717	      0.71874310	      0.92415404	      0.84212019	     10.31710959	      6.11286358	      2.35143104	     13.42326455	      0.23428016	     11.43103076	     -5.96710172	     -7.49999987	     16.92955780	     -5.70902885	     -3.10968713	     60.82682683	      1.06162840	      1.74390804	    -16.33924008	     -7.49999987	     -4.47899803	      5.63207648	      5.68098932	      6.82092232	    -15.38197356	     10.96269721	     22.24793709	     75.29687269	     -2.20510140	     -8.17543623	      5.18435943	     21.60484532	     77.77227670
